<svg width="170" height="35" viewBox="0 0 170 35" fill="none" xmlns="http://www.w3.org/2000/svg">
<circle cx="16" cy="13" r="3" fill="url(#paint0_linear_3314_210)"/>
<circle cx="6.5" cy="5.5" r="1.5" fill="url(#paint1_linear_3314_210)"/>
<circle cx="5.5" cy="12.5" r="1.5" fill="url(#paint2_linear_3314_210)"/>
<circle cx="5.5" cy="21.5" r="1.5" fill="url(#paint3_linear_3314_210)"/>
<circle cx="15.5" cy="4.5" r="1.5" fill="url(#paint4_linear_3314_210)"/>
<circle cx="15.5" cy="0.5" r="0.5" fill="url(#paint5_linear_3314_210)"/>
<circle cx="0.5" cy="12.5" r="0.5" fill="url(#paint6_linear_3314_210)"/>
<circle cx="0.5" cy="21.5" r="0.5" fill="url(#paint7_linear_3314_210)"/>
<circle cx="24.5" cy="0.5" r="0.5" fill="url(#paint8_linear_3314_210)"/>
<circle cx="40.5" cy="12.5" r="0.5" fill="url(#paint9_linear_3314_210)"/>
<circle cx="40.5" cy="21.5" r="0.5" fill="url(#paint10_linear_3314_210)"/>
<circle cx="24.5" cy="34.5" r="0.5" fill="url(#paint11_linear_3314_210)"/>
<circle cx="15.5" cy="34.5" r="0.5" fill="url(#paint12_linear_3314_210)"/>
<circle cx="24.5" cy="4.5" r="1.5" fill="url(#paint13_linear_3314_210)"/>
<circle cx="34.5" cy="4.5" r="1.5" fill="url(#paint14_linear_3314_210)"/>
<circle cx="34.5" cy="12.5" r="1.5" fill="url(#paint15_linear_3314_210)"/>
<circle cx="34.5" cy="21.5" r="1.5" fill="url(#paint16_linear_3314_210)"/>
<circle cx="34.5" cy="28.5" r="1.5" fill="url(#paint17_linear_3314_210)"/>
<circle cx="24.5" cy="28.5" r="1.5" fill="url(#paint18_linear_3314_210)"/>
<circle cx="15.5" cy="28.5" r="1.5" fill="url(#paint19_linear_3314_210)"/>
<circle cx="6.5" cy="28.5" r="1.5" fill="url(#paint20_linear_3314_210)"/>
<circle cx="16" cy="21" r="3" fill="url(#paint21_linear_3314_210)"/>
<circle cx="25" cy="13" r="3" fill="url(#paint22_linear_3314_210)"/>
<circle cx="25" cy="21" r="3" fill="url(#paint23_linear_3314_210)"/>
<path d="M61.7158 12.9199L62.8232 12.1953L63.1582 12.6533C63.0215 12.8447 62.8392 13.0544 62.6113 13.2822C62.3835 13.5101 62.1351 13.7083 61.8662 13.877C61.5973 14.041 61.333 14.123 61.0732 14.123C60.9411 14.123 60.8066 14.0889 60.6699 14.0205C60.5378 13.9567 60.4147 13.8337 60.3008 13.6514L58.1748 10.2334C58.0609 10.2334 57.833 10.2311 57.4912 10.2266C57.1494 10.2174 56.778 10.1969 56.377 10.165V11.8467C56.377 12.4255 56.4111 12.8789 56.4795 13.207C56.5524 13.5306 56.6025 13.7585 56.6299 13.8906C56.4977 13.9635 56.3314 14.0205 56.1309 14.0615C55.9349 14.1025 55.7572 14.123 55.5977 14.123C55.3607 14.123 55.1624 14.0752 55.0029 13.9795C54.848 13.8792 54.7705 13.6992 54.7705 13.4395V5.25L53.4512 5.33203V4.73047C53.5423 4.69857 53.6676 4.65527 53.8271 4.60059C53.9912 4.54134 54.2259 4.4821 54.5312 4.42285C54.8411 4.36361 55.2559 4.31348 55.7754 4.27246C56.2949 4.23145 56.958 4.21094 57.7646 4.21094C58.2842 4.21094 58.7718 4.25651 59.2275 4.34766C59.6833 4.4388 60.0866 4.59831 60.4375 4.82617C60.7884 5.04948 61.0618 5.36165 61.2578 5.7627C61.4583 6.16374 61.5586 6.67415 61.5586 7.29395C61.5586 7.95931 61.4014 8.52214 61.0869 8.98242C60.777 9.43815 60.3281 9.77083 59.7402 9.98047L61.7158 12.9199ZM56.377 9.20117C56.377 9.20117 56.484 9.22624 56.6982 9.27637C56.9124 9.3265 57.2223 9.35156 57.6279 9.35156C58.2523 9.35156 58.7285 9.25358 59.0566 9.05762C59.3893 8.86165 59.6172 8.60645 59.7402 8.29199C59.8633 7.97754 59.9248 7.64486 59.9248 7.29395C59.9248 7.00228 59.8975 6.72656 59.8428 6.4668C59.7926 6.20247 59.6855 5.97005 59.5215 5.76953C59.362 5.56445 59.1204 5.40495 58.7969 5.29102C58.4733 5.17253 58.0404 5.11328 57.498 5.11328C57.3294 5.11328 57.1471 5.11784 56.9512 5.12695C56.7598 5.13607 56.5684 5.1543 56.377 5.18164V9.20117ZM66.9371 14C66.7275 13.9772 66.5862 13.9225 66.5133 13.8359C66.4404 13.7493 66.4039 13.6081 66.4039 13.4121V5.16797H65.0982V4.62109C65.2805 4.55729 65.5995 4.49577 66.0553 4.43652C66.511 4.37272 67.0465 4.32031 67.6617 4.2793C68.2815 4.23372 68.9218 4.21094 69.5826 4.21094C69.9062 4.21094 70.2662 4.21777 70.6627 4.23145C71.0637 4.24056 71.4465 4.2679 71.8111 4.31348C72.1757 4.35905 72.4765 4.42741 72.7135 4.51855C72.9505 4.60514 73.0689 4.72819 73.0689 4.8877C73.0689 4.94694 73.0234 5.06543 72.9322 5.24316C72.8411 5.4209 72.7431 5.59408 72.6383 5.7627C72.538 5.93132 72.4719 6.03613 72.44 6.07715C72.44 6.07259 72.3307 6.00423 72.1119 5.87207C71.8977 5.73991 71.5742 5.61003 71.1412 5.48242C70.7128 5.35026 70.1751 5.2819 69.5279 5.27734L68.0104 5.26367V8.49707H71.6266V8.83203C71.6266 9.06901 71.5742 9.23307 71.4693 9.32422C71.3691 9.41536 71.2073 9.46094 70.984 9.46094H68.0104V13.0361H69.2477C69.8583 13.0361 70.4713 12.9951 71.0865 12.9131C71.7063 12.8265 72.3102 12.6898 72.898 12.5029C72.8935 12.5029 72.9163 12.585 72.9664 12.749C73.0165 12.9131 73.0416 13.0885 73.0416 13.2754C73.0416 13.5579 72.9413 13.7562 72.7408 13.8701C72.5449 13.9795 72.2213 14.041 71.7701 14.0547C71.3189 14.0729 70.7151 14.082 69.9586 14.082C69.5439 14.082 69.1337 14.0775 68.7281 14.0684C68.3225 14.0592 67.9602 14.0479 67.6412 14.0342C67.3268 14.0251 67.0921 14.0137 66.9371 14ZM86.4387 12.4209H86.5275C86.8374 11.4867 87.0904 10.7028 87.2863 10.0693C87.4823 9.43132 87.635 8.90951 87.7443 8.50391C87.8583 8.09831 87.9403 7.77702 87.9904 7.54004C88.0451 7.30306 88.077 7.12077 88.0861 6.99316C88.0998 6.861 88.1066 6.75163 88.1066 6.66504C88.1066 6.25944 88.0633 5.89258 87.9768 5.56445C87.8947 5.23177 87.8218 4.96289 87.758 4.75781L88.8654 4.28613C88.9292 4.25423 88.9862 4.23372 89.0363 4.22461C89.0865 4.21549 89.1366 4.21094 89.1867 4.21094C89.3553 4.21094 89.4852 4.29069 89.5764 4.4502C89.6675 4.60514 89.7131 4.81478 89.7131 5.0791C89.7131 5.4528 89.6356 5.96094 89.4807 6.60352C89.3303 7.24609 89.1184 7.97298 88.8449 8.78418C88.576 9.59538 88.2616 10.4476 87.9016 11.3408C87.5415 12.234 87.1519 13.1204 86.7326 14H85.9055C85.6913 14 85.5227 13.9635 85.3996 13.8906C85.2766 13.8132 85.1763 13.6628 85.0988 13.4395L83.2463 8.27148C83.1643 8.63151 83.0458 9.05534 82.8908 9.54297C82.7359 10.026 82.5581 10.5342 82.3576 11.0674C82.1571 11.596 81.9452 12.1156 81.7219 12.626C81.5031 13.1318 81.2889 13.5898 81.0793 14H80.2111C79.9924 14 79.8238 13.9635 79.7053 13.8906C79.5868 13.8132 79.4842 13.6628 79.3977 13.4395L76.4582 5.47559L75.2551 6.00879L75.0295 5.5166C75.1799 5.37533 75.385 5.20215 75.6447 4.99707C75.9045 4.79199 76.1734 4.6097 76.4514 4.4502C76.7294 4.29069 76.9732 4.21094 77.1828 4.21094C77.3241 4.21094 77.4631 4.2474 77.5998 4.32031C77.7411 4.39323 77.8413 4.51628 77.9006 4.68945L80.758 12.4209H80.84C81.0588 11.915 81.2593 11.3818 81.4416 10.8213C81.6239 10.2607 81.788 9.71159 81.9338 9.17383C82.0796 8.63151 82.2049 8.12793 82.3098 7.66309C82.4191 7.19824 82.508 6.80859 82.5764 6.49414L82.5217 6.31641C82.3394 5.76953 82.1776 5.36621 82.0363 5.10645C81.8996 4.84212 81.7993 4.66211 81.7355 4.56641C81.8905 4.43424 82.0705 4.3431 82.2756 4.29297C82.4807 4.23828 82.6607 4.21094 82.8156 4.21094C83.0572 4.21094 83.2486 4.24967 83.3898 4.32715C83.5311 4.40462 83.6473 4.5778 83.7385 4.84668L86.4387 12.4209ZM98.3865 11.3955H94.2166C94.0753 11.8877 94.0047 12.373 94.0047 12.8516C94.0047 13.0202 94.0138 13.1842 94.032 13.3438C94.0503 13.5033 94.0799 13.6559 94.1209 13.8018L93.0545 14.0957C92.9451 14.123 92.8426 14.1367 92.7469 14.1367C92.4689 14.1367 92.3299 14.0023 92.3299 13.7334C92.3299 13.7106 92.3322 13.6924 92.3367 13.6787C92.3413 13.6605 92.3436 13.6423 92.3436 13.624C92.3891 13.2321 92.4917 12.7741 92.6512 12.25C92.8107 11.7259 93.0044 11.1699 93.2322 10.582C93.4646 9.99414 93.7107 9.40397 93.9705 8.81152C94.2348 8.21908 94.4946 7.65625 94.7498 7.12305C95.0096 6.58529 95.2443 6.10905 95.4539 5.69434C95.6635 5.27507 95.8322 4.94466 95.9598 4.70312C96.0874 4.46159 96.1512 4.34082 96.1512 4.34082H96.8484C97.0763 4.34082 97.2449 4.37728 97.3543 4.4502C97.4682 4.52311 97.5708 4.6735 97.6619 4.90137L100.813 12.9062L102.016 12.4346L102.242 12.9199C102.092 13.0612 101.889 13.2298 101.634 13.4258C101.383 13.6217 101.114 13.7949 100.827 13.9453C100.54 14.0957 100.264 14.1709 99.9998 14.1709C99.8722 14.1709 99.7583 14.1413 99.658 14.082C99.5577 14.0228 99.4757 13.9202 99.4119 13.7744L98.3865 11.3955ZM96.3152 5.90625C95.9188 6.83138 95.5451 7.67448 95.1941 8.43555C94.8478 9.19661 94.5971 9.87109 94.4422 10.459H98.0379L96.3904 5.90625H96.3152ZM106.54 4.42285L111.907 11.7578C111.884 9.82552 111.831 8.24642 111.749 7.02051C111.667 5.79004 111.574 4.94238 111.469 4.47754C111.478 4.47754 111.537 4.46159 111.647 4.42969C111.756 4.39323 112.009 4.33171 112.406 4.24512C112.451 4.22233 112.526 4.21094 112.631 4.21094C112.804 4.21094 112.907 4.31348 112.939 4.51855C112.975 4.71908 112.994 5.06999 112.994 5.57129C112.994 5.99967 112.984 6.4987 112.966 7.06836C112.953 7.63346 112.932 8.23503 112.905 8.87305C112.882 9.50651 112.855 10.1423 112.823 10.7803C112.791 11.4183 112.757 12.0244 112.72 12.5986C112.688 13.1729 112.654 13.681 112.618 14.123H111.989C111.847 14.123 111.745 14.1025 111.681 14.0615C111.617 14.0205 111.556 13.9635 111.496 13.8906L106.363 6.80176C106.445 7.81803 106.502 8.73633 106.534 9.55664C106.565 10.3724 106.581 11.0514 106.581 11.5938C106.581 12.2819 106.563 12.8151 106.527 13.1934C106.495 13.5671 106.461 13.8268 106.424 13.9727C106.392 14.1139 106.376 14.1846 106.376 14.1846L105.536 14.0273C105.171 13.959 104.989 13.7539 104.989 13.4121C104.989 13.3027 105.002 13.1865 105.03 13.0635C105.093 12.7764 105.148 12.4368 105.194 12.0449C105.239 11.653 105.274 11.1426 105.296 10.5137C105.324 9.88021 105.337 9.06445 105.337 8.06641C105.337 7.47852 105.333 6.94531 105.324 6.4668C105.315 5.98828 105.31 5.52116 105.31 5.06543H103.991V4.52539C104.118 4.46159 104.369 4.39323 104.743 4.32031C105.116 4.2474 105.52 4.21094 105.953 4.21094C106.24 4.21094 106.436 4.28158 106.54 4.42285ZM124.803 5.30469C124.234 5.30469 123.707 5.32975 123.224 5.37988C122.741 5.43001 122.326 5.4847 121.98 5.54395C121.634 5.60319 121.376 5.64421 121.208 5.66699C121.212 5.66699 121.203 5.61686 121.18 5.5166C121.157 5.41634 121.135 5.30241 121.112 5.1748C121.089 5.04264 121.078 4.92871 121.078 4.83301C121.078 4.62793 121.192 4.49349 121.42 4.42969C121.652 4.36589 121.962 4.33626 122.349 4.34082C122.741 4.34082 123.172 4.34082 123.641 4.34082H125.644C126.063 4.34082 126.66 4.33398 127.435 4.32031C128.214 4.30208 129.06 4.23372 129.971 4.11523H129.985H129.971C129.976 4.13346 129.996 4.21777 130.033 4.36816C130.074 4.51855 130.094 4.68717 130.094 4.87402C130.094 5.02441 130.026 5.13379 129.889 5.20215C129.757 5.26595 129.582 5.30697 129.363 5.3252C129.149 5.33887 128.916 5.3457 128.666 5.3457C128.151 5.3457 127.711 5.34115 127.346 5.33203C126.982 5.31836 126.672 5.30924 126.417 5.30469V11.8467C126.417 12.4255 126.444 12.8789 126.499 13.207C126.553 13.5306 126.594 13.7585 126.622 13.8906C126.49 13.9635 126.33 14.0205 126.143 14.0615C125.956 14.1025 125.785 14.123 125.63 14.123C125.393 14.123 125.195 14.0752 125.036 13.9795C124.881 13.8792 124.803 13.6992 124.803 13.4395V5.30469ZM133.866 14C133.657 13.9772 133.515 13.9225 133.443 13.8359C133.37 13.7493 133.333 13.6081 133.333 13.4121V5.16797H132.028V4.62109C132.21 4.55729 132.529 4.49577 132.985 4.43652C133.44 4.37272 133.976 4.32031 134.591 4.2793C135.211 4.23372 135.851 4.21094 136.512 4.21094C136.835 4.21094 137.196 4.21777 137.592 4.23145C137.993 4.24056 138.376 4.2679 138.74 4.31348C139.105 4.35905 139.406 4.42741 139.643 4.51855C139.88 4.60514 139.998 4.72819 139.998 4.8877C139.998 4.94694 139.953 5.06543 139.862 5.24316C139.77 5.4209 139.672 5.59408 139.568 5.7627C139.467 5.93132 139.401 6.03613 139.369 6.07715C139.369 6.07259 139.26 6.00423 139.041 5.87207C138.827 5.73991 138.503 5.61003 138.071 5.48242C137.642 5.35026 137.104 5.2819 136.457 5.27734L134.94 5.26367V8.49707H138.556V8.83203C138.556 9.06901 138.503 9.23307 138.399 9.32422C138.298 9.41536 138.137 9.46094 137.913 9.46094H134.94V13.0361H136.177C136.788 13.0361 137.401 12.9951 138.016 12.9131C138.636 12.8265 139.239 12.6898 139.827 12.5029C139.823 12.5029 139.846 12.585 139.896 12.749C139.946 12.9131 139.971 13.0885 139.971 13.2754C139.971 13.5579 139.871 13.7562 139.67 13.8701C139.474 13.9795 139.151 14.041 138.699 14.0547C138.248 14.0729 137.644 14.082 136.888 14.082C136.473 14.082 136.063 14.0775 135.657 14.0684C135.252 14.0592 134.89 14.0479 134.571 14.0342C134.256 14.0251 134.021 14.0137 133.866 14ZM142.868 9.20117C142.868 8.15299 143.059 7.24837 143.442 6.4873C143.825 5.72168 144.392 5.13151 145.144 4.7168C145.896 4.29753 146.826 4.08789 147.933 4.08789C148.189 4.08789 148.487 4.10384 148.829 4.13574C149.171 4.16309 149.503 4.21094 149.827 4.2793C150.155 4.34766 150.426 4.4388 150.64 4.55273C150.855 4.66667 150.962 4.81022 150.962 4.9834C150.962 5.06543 150.934 5.1543 150.88 5.25L150.305 6.21387C150.105 6.09993 149.857 5.94727 149.56 5.75586C149.264 5.56445 148.934 5.39128 148.569 5.23633C148.205 5.07682 147.817 4.99707 147.407 4.99707C146.869 4.99707 146.42 5.1224 146.06 5.37305C145.705 5.61914 145.422 5.94499 145.213 6.35059C145.008 6.75163 144.862 7.18913 144.775 7.66309C144.689 8.13704 144.645 8.59733 144.645 9.04395C144.645 9.77767 144.777 10.4613 145.042 11.0947C145.311 11.7282 145.714 12.2409 146.252 12.6328C146.79 13.0202 147.464 13.2139 148.275 13.2139C148.612 13.2139 148.947 13.1865 149.28 13.1318C149.617 13.0726 149.923 13.0042 150.196 12.9268C150.47 12.8493 150.688 12.7832 150.852 12.7285C151.016 12.6693 151.098 12.6396 151.098 12.6396L151.379 13.1729C150.868 13.5739 150.301 13.8564 149.677 14.0205C149.057 14.1846 148.421 14.2666 147.769 14.2666C146.771 14.2666 145.905 14.0615 145.172 13.6514C144.438 13.2367 143.871 12.651 143.47 11.8945C143.068 11.1335 142.868 10.2357 142.868 9.20117ZM162.93 13.2139H164.222V13.8018C164.058 13.8883 163.787 13.9635 163.409 14.0273C163.035 14.0911 162.666 14.123 162.301 14.123C162.023 14.123 161.791 14.082 161.604 14C161.417 13.9225 161.324 13.7448 161.324 13.4668V9.41992H156.6V11.8467C156.6 12.4255 156.627 12.8789 156.682 13.207C156.741 13.5306 156.785 13.7585 156.812 13.8906C156.68 13.9635 156.52 14.0205 156.333 14.0615C156.147 14.1025 155.976 14.123 155.821 14.123C155.584 14.123 155.385 14.0752 155.226 13.9795C155.071 13.8792 154.994 13.6992 154.994 13.4395V5.06543H153.674V4.52539C153.815 4.45247 154.078 4.38184 154.46 4.31348C154.843 4.24512 155.258 4.21094 155.704 4.21094H156.012C156.19 4.21094 156.331 4.22005 156.436 4.23828C156.545 4.25651 156.6 4.36589 156.6 4.56641V8.45605H161.324V6.42578C161.324 5.84245 161.294 5.39811 161.235 5.09277C161.18 4.78743 161.139 4.56868 161.112 4.43652C161.244 4.35905 161.403 4.30208 161.59 4.26562C161.777 4.22917 161.948 4.21094 162.103 4.21094C162.344 4.21094 162.543 4.25879 162.698 4.35449C162.853 4.4502 162.93 4.62793 162.93 4.8877V13.2139ZM57.375 25.1621C57.7852 25.3353 58.1976 25.5221 58.6123 25.7227C59.0316 25.9186 59.4144 26.1419 59.7607 26.3926C60.1117 26.6432 60.3919 26.9372 60.6016 27.2744C60.8112 27.6071 60.916 27.999 60.916 28.4502C60.916 29.0426 60.7633 29.5485 60.458 29.9678C60.1572 30.387 59.7562 30.7083 59.2549 30.9316C58.7536 31.1549 58.2067 31.2666 57.6143 31.2666C57.0218 31.2666 56.4271 31.1891 55.8301 31.0342C55.2376 30.8838 54.6794 30.6354 54.1553 30.2891C54.055 30.2253 53.957 30.141 53.8613 30.0361C53.7656 29.9268 53.7178 29.8151 53.7178 29.7012C53.7178 29.6055 53.752 29.5212 53.8203 29.4482L54.5176 28.6211C54.8092 28.8535 55.1374 29.1064 55.502 29.3799C55.8665 29.6533 56.238 29.8903 56.6162 30.0908C56.999 30.2868 57.3545 30.3848 57.6826 30.3848C57.9606 30.3848 58.2227 30.3255 58.4688 30.207C58.7194 30.0885 58.9222 29.9222 59.0771 29.708C59.2367 29.4893 59.3164 29.2295 59.3164 28.9287C59.3164 28.5459 59.1888 28.2064 58.9336 27.9102C58.6784 27.6139 58.348 27.3496 57.9424 27.1172C57.5413 26.8848 57.1175 26.6774 56.6709 26.4951C55.9372 26.1852 55.3812 25.873 55.0029 25.5586C54.6292 25.2441 54.3763 24.932 54.2441 24.6221C54.1165 24.3076 54.0527 24.0023 54.0527 23.7061C54.0527 23.2002 54.1735 22.7786 54.415 22.4414C54.6566 22.1042 54.9733 21.8376 55.3652 21.6416C55.7572 21.4411 56.1833 21.2998 56.6436 21.2178C57.1038 21.1312 57.5527 21.0879 57.9902 21.0879C58.1816 21.0879 58.4163 21.1016 58.6943 21.1289C58.9769 21.1517 59.2572 21.1927 59.5352 21.252C59.8132 21.3066 60.0433 21.3841 60.2256 21.4844C60.4124 21.5846 60.5059 21.71 60.5059 21.8604C60.5059 21.9333 60.4785 22.0221 60.4238 22.127L59.877 23.0635C59.4759 22.8311 59.0452 22.5964 58.585 22.3594C58.1247 22.1178 57.6234 21.9971 57.0811 21.9971C56.6937 21.9971 56.3542 22.1178 56.0625 22.3594C55.7708 22.5964 55.625 22.9564 55.625 23.4395C55.625 23.7129 55.707 23.9567 55.8711 24.1709C56.0397 24.3805 56.2562 24.5651 56.5205 24.7246C56.7894 24.8841 57.0742 25.0299 57.375 25.1621ZM76.972 26.1807C76.972 27.1833 76.7874 28.0674 76.4183 28.833C76.0537 29.5986 75.5273 30.1956 74.8392 30.624C74.151 31.0524 73.3262 31.2666 72.3646 31.2666C71.403 31.2666 70.5758 31.0524 69.8831 30.624C69.195 30.1956 68.6663 29.5986 68.2972 28.833C67.928 28.0674 67.7435 27.1833 67.7435 26.1807C67.7435 25.1781 67.928 24.2939 68.2972 23.5283C68.6663 22.7627 69.195 22.1657 69.8831 21.7373C70.5758 21.3044 71.403 21.0879 72.3646 21.0879C73.3262 21.0879 74.151 21.3044 74.8392 21.7373C75.5273 22.1657 76.0537 22.7627 76.4183 23.5283C76.7874 24.2939 76.972 25.1781 76.972 26.1807ZM69.5208 26.1807C69.5208 27.001 69.612 27.7301 69.7943 28.3682C69.9811 29.0016 70.2819 29.4984 70.6966 29.8584C71.1159 30.2184 71.6719 30.3984 72.3646 30.3984C73.0527 30.3984 73.6019 30.2184 74.012 29.8584C74.4267 29.4938 74.7275 28.9948 74.9144 28.3613C75.1012 27.7233 75.1946 26.9964 75.1946 26.1807C75.1946 25.4059 75.1035 24.6995 74.9212 24.0615C74.7389 23.4235 74.4404 22.9131 74.0257 22.5303C73.6155 22.1475 73.0618 21.9561 72.3646 21.9561C71.845 21.9561 71.403 22.07 71.0384 22.2979C70.6784 22.5212 70.3867 22.8311 70.1634 23.2275C69.9401 23.6195 69.776 24.0706 69.6712 24.5811C69.571 25.0869 69.5208 25.6201 69.5208 26.1807ZM86.4108 30.0361H87.6481C88.2588 30.0361 88.8717 29.9951 89.487 29.9131C90.1067 29.8265 90.7106 29.6898 91.2985 29.5029C91.2939 29.5029 91.3167 29.585 91.3668 29.749C91.417 29.9131 91.442 30.0885 91.442 30.2754C91.442 30.5443 91.3463 30.7357 91.1549 30.8496C90.9681 30.959 90.6491 31.0251 90.1979 31.0479C89.7513 31.0706 89.1383 31.082 88.359 31.082C87.9443 31.082 87.5342 31.0775 87.1286 31.0684C86.723 31.0592 86.3607 31.0479 86.0416 31.0342C85.7272 31.0251 85.4925 31.0137 85.3375 31C85.1279 30.9772 84.9866 30.9225 84.9137 30.8359C84.8408 30.7493 84.8043 30.6081 84.8043 30.4121V22.0654H83.485V21.5254C83.6263 21.4525 83.8883 21.3818 84.2711 21.3135C84.6539 21.2451 85.0687 21.2109 85.5153 21.2109C85.8662 21.2109 86.1032 21.2269 86.2262 21.2588C86.3493 21.2861 86.4108 21.3887 86.4108 21.5664V30.0361ZM106.192 27.2744C106.192 28.1449 106.012 28.8786 105.652 29.4756C105.297 30.068 104.825 30.5146 104.237 30.8154C103.649 31.1162 103.005 31.2666 102.303 31.2666C100.981 31.2666 99.9534 30.9271 99.2197 30.248C98.486 29.5645 98.1191 28.5687 98.1191 27.2607V22.0654H96.7861V21.5254C96.9274 21.4661 97.1894 21.4001 97.5722 21.3271C97.955 21.2497 98.3698 21.2109 98.8164 21.2109C99.1901 21.2109 99.4316 21.2269 99.541 21.2588C99.6549 21.2861 99.7119 21.3887 99.7119 21.5664V27.2881C99.7119 27.6436 99.7552 28.0036 99.8418 28.3682C99.9283 28.7327 100.07 29.07 100.266 29.3799C100.466 29.6898 100.733 29.9404 101.065 30.1318C101.398 30.3187 101.811 30.4121 102.303 30.4121C102.809 30.4121 103.23 30.3187 103.567 30.1318C103.905 29.9404 104.171 29.6898 104.367 29.3799C104.563 29.0654 104.702 28.7236 104.784 28.3545C104.866 27.9854 104.907 27.6208 104.907 27.2607V23.3848C104.907 22.8151 104.88 22.3753 104.825 22.0654C104.77 21.7555 104.732 21.5368 104.709 21.4092C104.8 21.3408 104.923 21.2907 105.078 21.2588C105.238 21.2269 105.377 21.2109 105.495 21.2109C105.677 21.2109 105.839 21.2565 105.98 21.3477C106.122 21.4388 106.192 21.6188 106.192 21.8877V27.2744ZM116.533 22.3047C115.964 22.3047 115.437 22.3298 114.954 22.3799C114.471 22.43 114.057 22.4847 113.71 22.5439C113.364 22.6032 113.106 22.6442 112.938 22.667C112.942 22.667 112.933 22.6169 112.91 22.5166C112.888 22.4163 112.865 22.3024 112.842 22.1748C112.819 22.0426 112.808 21.9287 112.808 21.833C112.808 21.6279 112.922 21.4935 113.15 21.4297C113.382 21.3659 113.692 21.3363 114.079 21.3408C114.471 21.3408 114.902 21.3408 115.371 21.3408H117.374C117.794 21.3408 118.391 21.334 119.165 21.3203C119.945 21.3021 120.79 21.2337 121.701 21.1152H121.715H121.701C121.706 21.1335 121.727 21.2178 121.763 21.3682C121.804 21.5186 121.824 21.6872 121.824 21.874C121.824 22.0244 121.756 22.1338 121.619 22.2021C121.487 22.266 121.312 22.307 121.093 22.3252C120.879 22.3389 120.646 22.3457 120.396 22.3457C119.881 22.3457 119.441 22.3411 119.076 22.332C118.712 22.3184 118.402 22.3092 118.147 22.3047V28.8467C118.147 29.4255 118.174 29.8789 118.229 30.207C118.283 30.5306 118.324 30.7585 118.352 30.8906C118.22 30.9635 118.06 31.0205 117.873 31.0615C117.686 31.1025 117.516 31.123 117.361 31.123C117.124 31.123 116.925 31.0752 116.766 30.9795C116.611 30.8792 116.533 30.6992 116.533 30.4395V22.3047ZM128.85 22.0654H127.531V21.5254C127.672 21.4525 127.934 21.3818 128.317 21.3135C128.7 21.2451 129.115 21.2109 129.561 21.2109C129.926 21.2109 130.165 21.2314 130.279 21.2725C130.397 21.3089 130.457 21.4069 130.457 21.5664V30.2139H131.749V30.8018C131.589 30.8883 131.32 30.9635 130.942 31.0273C130.564 31.0911 130.192 31.123 129.828 31.123C129.55 31.123 129.317 31.082 129.13 31C128.944 30.9225 128.85 30.7448 128.85 30.4668V22.0654ZM147.538 26.1807C147.538 27.1833 147.353 28.0674 146.984 28.833C146.62 29.5986 146.093 30.1956 145.405 30.624C144.717 31.0524 143.892 31.2666 142.931 31.2666C141.969 31.2666 141.142 31.0524 140.449 30.624C139.761 30.1956 139.232 29.5986 138.863 28.833C138.494 28.0674 138.309 27.1833 138.309 26.1807C138.309 25.1781 138.494 24.2939 138.863 23.5283C139.232 22.7627 139.761 22.1657 140.449 21.7373C141.142 21.3044 141.969 21.0879 142.931 21.0879C143.892 21.0879 144.717 21.3044 145.405 21.7373C146.093 22.1657 146.62 22.7627 146.984 23.5283C147.353 24.2939 147.538 25.1781 147.538 26.1807ZM140.087 26.1807C140.087 27.001 140.178 27.7301 140.36 28.3682C140.547 29.0016 140.848 29.4984 141.263 29.8584C141.682 30.2184 142.238 30.3984 142.931 30.3984C143.619 30.3984 144.168 30.2184 144.578 29.8584C144.993 29.4938 145.294 28.9948 145.48 28.3613C145.667 27.7233 145.761 26.9964 145.761 26.1807C145.761 25.4059 145.67 24.6995 145.487 24.0615C145.305 23.4235 145.006 22.9131 144.592 22.5303C144.182 22.1475 143.628 21.9561 142.931 21.9561C142.411 21.9561 141.969 22.07 141.604 22.2979C141.244 22.5212 140.953 22.8311 140.729 23.2275C140.506 23.6195 140.342 24.0706 140.237 24.5811C140.137 25.0869 140.087 25.6201 140.087 26.1807ZM156.573 21.4229L161.94 28.7578C161.917 26.8255 161.864 25.2464 161.782 24.0205C161.7 22.79 161.607 21.9424 161.502 21.4775C161.511 21.4775 161.571 21.4616 161.68 21.4297C161.789 21.3932 162.042 21.3317 162.439 21.2451C162.484 21.2223 162.559 21.2109 162.664 21.2109C162.837 21.2109 162.94 21.3135 162.972 21.5186C163.008 21.7191 163.027 22.07 163.027 22.5713C163.027 22.9997 163.017 23.4987 162.999 24.0684C162.986 24.6335 162.965 25.235 162.938 25.873C162.915 26.5065 162.888 27.1423 162.856 27.7803C162.824 28.4183 162.79 29.0244 162.753 29.5986C162.721 30.1729 162.687 30.681 162.651 31.123H162.022C161.88 31.123 161.778 31.1025 161.714 31.0615C161.65 31.0205 161.589 30.9635 161.53 30.8906L156.396 23.8018C156.478 24.818 156.535 25.7363 156.567 26.5566C156.599 27.3724 156.614 28.0514 156.614 28.5938C156.614 29.2819 156.596 29.8151 156.56 30.1934C156.528 30.5671 156.494 30.8268 156.457 30.9727C156.425 31.1139 156.409 31.1846 156.409 31.1846L155.569 31.0273C155.204 30.959 155.022 30.7539 155.022 30.4121C155.022 30.3027 155.035 30.1865 155.063 30.0635C155.127 29.7764 155.181 29.4368 155.227 29.0449C155.272 28.653 155.307 28.1426 155.329 27.5137C155.357 26.8802 155.37 26.0645 155.37 25.0664C155.37 24.4785 155.366 23.9453 155.357 23.4668C155.348 22.9883 155.343 22.5212 155.343 22.0654H154.024V21.5254C154.151 21.4616 154.402 21.3932 154.776 21.3203C155.149 21.2474 155.553 21.2109 155.986 21.2109C156.273 21.2109 156.469 21.2816 156.573 21.4229Z" fill="white"/>
<defs>
<linearGradient id="paint0_linear_3314_210" x1="16" y1="10" x2="16" y2="16" gradientUnits="userSpaceOnUse">
<stop stop-color="#0091FF"/>
<stop offset="1" stop-color="#737373"/>
</linearGradient>
<linearGradient id="paint1_linear_3314_210" x1="6.5" y1="4" x2="6.5" y2="7" gradientUnits="userSpaceOnUse">
<stop stop-color="#0091FF"/>
<stop offset="1" stop-color="#737373"/>
</linearGradient>
<linearGradient id="paint2_linear_3314_210" x1="5.5" y1="11" x2="5.5" y2="14" gradientUnits="userSpaceOnUse">
<stop stop-color="#0091FF"/>
<stop offset="1" stop-color="#737373"/>
</linearGradient>
<linearGradient id="paint3_linear_3314_210" x1="5.5" y1="20" x2="5.5" y2="23" gradientUnits="userSpaceOnUse">
<stop stop-color="#0091FF"/>
<stop offset="1" stop-color="#737373"/>
</linearGradient>
<linearGradient id="paint4_linear_3314_210" x1="15.5" y1="3" x2="15.5" y2="6" gradientUnits="userSpaceOnUse">
<stop stop-color="#0091FF"/>
<stop offset="1" stop-color="#737373"/>
</linearGradient>
<linearGradient id="paint5_linear_3314_210" x1="15.5" y1="0" x2="15.5" y2="1" gradientUnits="userSpaceOnUse">
<stop stop-color="#0091FF"/>
<stop offset="1" stop-color="#737373"/>
</linearGradient>
<linearGradient id="paint6_linear_3314_210" x1="0.5" y1="12" x2="0.5" y2="13" gradientUnits="userSpaceOnUse">
<stop stop-color="#0091FF"/>
<stop offset="1" stop-color="#737373"/>
</linearGradient>
<linearGradient id="paint7_linear_3314_210" x1="0.5" y1="21" x2="0.5" y2="22" gradientUnits="userSpaceOnUse">
<stop stop-color="#0091FF"/>
<stop offset="1" stop-color="#737373"/>
</linearGradient>
<linearGradient id="paint8_linear_3314_210" x1="24.5" y1="0" x2="24.5" y2="1" gradientUnits="userSpaceOnUse">
<stop stop-color="#0091FF"/>
<stop offset="1" stop-color="#737373"/>
</linearGradient>
<linearGradient id="paint9_linear_3314_210" x1="40.5" y1="12" x2="40.5" y2="13" gradientUnits="userSpaceOnUse">
<stop stop-color="#0091FF"/>
<stop offset="1" stop-color="#737373"/>
</linearGradient>
<linearGradient id="paint10_linear_3314_210" x1="40.5" y1="21" x2="40.5" y2="22" gradientUnits="userSpaceOnUse">
<stop stop-color="#0091FF"/>
<stop offset="1" stop-color="#737373"/>
</linearGradient>
<linearGradient id="paint11_linear_3314_210" x1="24.5" y1="34" x2="24.5" y2="35" gradientUnits="userSpaceOnUse">
<stop stop-color="#0091FF"/>
<stop offset="1" stop-color="#737373"/>
</linearGradient>
<linearGradient id="paint12_linear_3314_210" x1="15.5" y1="34" x2="15.5" y2="35" gradientUnits="userSpaceOnUse">
<stop stop-color="#0091FF"/>
<stop offset="1" stop-color="#737373"/>
</linearGradient>
<linearGradient id="paint13_linear_3314_210" x1="24.5" y1="3" x2="24.5" y2="6" gradientUnits="userSpaceOnUse">
<stop stop-color="#0091FF"/>
<stop offset="1" stop-color="#737373"/>
</linearGradient>
<linearGradient id="paint14_linear_3314_210" x1="34.5" y1="3" x2="34.5" y2="6" gradientUnits="userSpaceOnUse">
<stop stop-color="#0091FF"/>
<stop offset="1" stop-color="#737373"/>
</linearGradient>
<linearGradient id="paint15_linear_3314_210" x1="34.5" y1="11" x2="34.5" y2="14" gradientUnits="userSpaceOnUse">
<stop stop-color="#0091FF"/>
<stop offset="1" stop-color="#737373"/>
</linearGradient>
<linearGradient id="paint16_linear_3314_210" x1="34.5" y1="20" x2="34.5" y2="23" gradientUnits="userSpaceOnUse">
<stop stop-color="#0091FF"/>
<stop offset="1" stop-color="#737373"/>
</linearGradient>
<linearGradient id="paint17_linear_3314_210" x1="34.5" y1="27" x2="34.5" y2="30" gradientUnits="userSpaceOnUse">
<stop stop-color="#0091FF"/>
<stop offset="1" stop-color="#737373"/>
</linearGradient>
<linearGradient id="paint18_linear_3314_210" x1="24.5" y1="27" x2="24.5" y2="30" gradientUnits="userSpaceOnUse">
<stop stop-color="#0091FF"/>
<stop offset="1" stop-color="#737373"/>
</linearGradient>
<linearGradient id="paint19_linear_3314_210" x1="15.5" y1="27" x2="15.5" y2="30" gradientUnits="userSpaceOnUse">
<stop stop-color="#0091FF"/>
<stop offset="1" stop-color="#737373"/>
</linearGradient>
<linearGradient id="paint20_linear_3314_210" x1="6.5" y1="27" x2="6.5" y2="30" gradientUnits="userSpaceOnUse">
<stop stop-color="#0091FF"/>
<stop offset="1" stop-color="#737373"/>
</linearGradient>
<linearGradient id="paint21_linear_3314_210" x1="16" y1="18" x2="16" y2="24" gradientUnits="userSpaceOnUse">
<stop stop-color="#0091FF"/>
<stop offset="1" stop-color="#737373"/>
</linearGradient>
<linearGradient id="paint22_linear_3314_210" x1="25" y1="10" x2="25" y2="16" gradientUnits="userSpaceOnUse">
<stop stop-color="#0091FF"/>
<stop offset="1" stop-color="#737373"/>
</linearGradient>
<linearGradient id="paint23_linear_3314_210" x1="25" y1="18" x2="25" y2="24" gradientUnits="userSpaceOnUse">
<stop stop-color="#0091FF"/>
<stop offset="1" stop-color="#737373"/>
</linearGradient>
</defs>
</svg>
